<svg width="180" height="180" viewBox="0 0 180 180" fill="none" xmlns="http://www.w3.org/2000/svg">
<rect width="180" height="180" fill="white"/>
<path d="M80.625 93.3125V118C80.625 123.333 81.2083 126.646 82.375 127.938C83.9583 129.771 86.3542 130.688 89.5625 130.688H92.8125V133H56.5V130.688H59.6875C63.2708 130.688 65.8333 129.521 67.375 127.188C68.2083 125.896 68.625 122.833 68.625 118V63.25C68.625 57.9167 68.0625 54.6042 66.9375 53.3125C65.3125 51.4792 62.8958 50.5625 59.6875 50.5625H56.5V48.25H87.5625C95.1458 48.25 101.125 49.0417 105.5 50.625C109.875 52.1667 113.562 54.7917 116.562 58.5C119.562 62.2083 121.062 66.6042 121.062 71.6875C121.062 78.6042 118.771 84.2292 114.188 88.5625C109.646 92.8958 103.208 95.0625 94.875 95.0625C92.8333 95.0625 90.625 94.9167 88.25 94.625C85.875 94.3333 83.3333 93.8958 80.625 93.3125ZM80.625 89.75C82.8333 90.1667 84.7917 90.4792 86.5 90.6875C88.2083 90.8958 89.6667 91 90.875 91C95.2083 91 98.9375 89.3333 102.062 86C105.229 82.625 106.812 78.2708 106.812 72.9375C106.812 69.2708 106.062 65.875 104.562 62.75C103.062 59.5833 100.938 57.2292 98.1875 55.6875C95.4375 54.1042 92.3125 53.3125 88.8125 53.3125C86.6875 53.3125 83.9583 53.7083 80.625 54.5V89.75Z" fill="black"/>
<path d="M54.375 150.062H125.562V156.312H54.375V150.062Z" fill="black"/>
</svg>
