<svg width="548" height="110" viewBox="0 0 548 110" fill="none" xmlns="http://www.w3.org/2000/svg">
<path d="M26.25 47V71.6875C26.25 77.0208 26.8333 80.3333 28 81.625C29.5833 83.4583 31.9792 84.375 35.1875 84.375H38.4375V86.6875H2.125V84.375H5.3125C8.89583 84.375 11.4583 83.2083 13 80.875C13.8333 79.5833 14.25 76.5208 14.25 71.6875V16.9375C14.25 11.6042 13.6875 8.29167 12.5625 7C10.9375 5.16667 8.52083 4.25 5.3125 4.25H2.125V1.9375H33.1875C40.7708 1.9375 46.75 2.72917 51.125 4.3125C55.5 5.85417 59.1875 8.47917 62.1875 12.1875C65.1875 15.8958 66.6875 20.2917 66.6875 25.375C66.6875 32.2917 64.3958 37.9167 59.8125 42.25C55.2708 46.5833 48.8333 48.75 40.5 48.75C38.4583 48.75 36.25 48.6042 33.875 48.3125C31.5 48.0208 28.9583 47.5833 26.25 47ZM26.25 43.4375C28.4583 43.8542 30.4167 44.1667 32.125 44.375C33.8333 44.5833 35.2917 44.6875 36.5 44.6875C40.8333 44.6875 44.5625 43.0208 47.6875 39.6875C50.8542 36.3125 52.4375 31.9583 52.4375 26.625C52.4375 22.9583 51.6875 19.5625 50.1875 16.4375C48.6875 13.2708 46.5625 10.9167 43.8125 9.375C41.0625 7.79167 37.9375 7 34.4375 7C32.3125 7 29.5833 7.39583 26.25 8.1875V43.4375ZM157.75 86.6875H135.125L106.438 47.0625C104.312 47.1458 102.583 47.1875 101.25 47.1875C100.708 47.1875 100.125 47.1875 99.5 47.1875C98.875 47.1458 98.2292 47.1042 97.5625 47.0625V71.6875C97.5625 77.0208 98.1458 80.3333 99.3125 81.625C100.896 83.4583 103.271 84.375 106.438 84.375H109.75V86.6875H73.4375V84.375H76.625C80.2083 84.375 82.7708 83.2083 84.3125 80.875C85.1875 79.5833 85.625 76.5208 85.625 71.6875V16.9375C85.625 11.6042 85.0417 8.29167 83.875 7C82.25 5.16667 79.8333 4.25 76.625 4.25H73.4375V1.9375H104.312C113.312 1.9375 119.938 2.60417 124.188 3.9375C128.479 5.22917 132.104 7.64583 135.062 11.1875C138.062 14.6875 139.562 18.875 139.562 23.75C139.562 28.9583 137.854 33.4792 134.438 37.3125C131.062 41.1458 125.812 43.8542 118.688 45.4375L136.188 69.75C140.188 75.3333 143.625 79.0417 146.5 80.875C149.375 82.7083 153.125 83.875 157.75 84.375V86.6875ZM97.5625 43.125C98.3542 43.125 99.0417 43.1458 99.625 43.1875C100.208 43.1875 100.688 43.1875 101.062 43.1875C109.146 43.1875 115.229 41.4375 119.312 37.9375C123.438 34.4375 125.5 29.9792 125.5 24.5625C125.5 19.2708 123.833 14.9792 120.5 11.6875C117.208 8.35417 112.833 6.6875 107.375 6.6875C104.958 6.6875 101.688 7.08333 97.5625 7.875V43.125ZM183.375 6.5625V40.0625H202C206.833 40.0625 210.062 39.3333 211.688 37.875C213.854 35.9583 215.062 32.5833 215.312 27.75H217.625V57.25H215.312C214.729 53.125 214.146 50.4792 213.562 49.3125C212.812 47.8542 211.583 46.7083 209.875 45.875C208.167 45.0417 205.542 44.625 202 44.625H183.375V72.5625C183.375 76.3125 183.542 78.6042 183.875 79.4375C184.208 80.2292 184.792 80.875 185.625 81.375C186.458 81.8333 188.042 82.0625 190.375 82.0625H204.75C209.542 82.0625 213.021 81.7292 215.188 81.0625C217.354 80.3958 219.438 79.0833 221.438 77.125C224.021 74.5417 226.667 70.6458 229.375 65.4375H231.875L224.562 86.6875H159.25V84.375H162.25C164.25 84.375 166.146 83.8958 167.938 82.9375C169.271 82.2708 170.167 81.2708 170.625 79.9375C171.125 78.6042 171.375 75.875 171.375 71.75V16.6875C171.375 11.3125 170.833 8 169.75 6.75C168.25 5.08333 165.75 4.25 162.25 4.25H159.25V1.9375H224.562L225.5 20.5H223.062C222.188 16.0417 221.208 12.9792 220.125 11.3125C219.083 9.64583 217.521 8.375 215.438 7.5C213.771 6.875 210.833 6.5625 206.625 6.5625H183.375ZM311.938 0L313.875 28.8125H311.938C309.354 20.1875 305.667 13.9792 300.875 10.1875C296.083 6.39583 290.333 4.5 283.625 4.5C278 4.5 272.917 5.9375 268.375 8.8125C263.833 11.6458 260.25 16.1875 257.625 22.4375C255.042 28.6875 253.75 36.4583 253.75 45.75C253.75 53.4167 254.979 60.0625 257.438 65.6875C259.896 71.3125 263.583 75.625 268.5 78.625C273.458 81.625 279.104 83.125 285.438 83.125C290.938 83.125 295.792 81.9583 300 79.625C304.208 77.25 308.833 72.5625 313.875 65.5625L315.812 66.8125C311.562 74.3542 306.604 79.875 300.938 83.375C295.271 86.875 288.542 88.625 280.75 88.625C266.708 88.625 255.833 83.4167 248.125 73C242.375 65.25 239.5 56.125 239.5 45.625C239.5 37.1667 241.396 29.3958 245.188 22.3125C248.979 15.2292 254.188 9.75 260.812 5.875C267.479 1.95833 274.75 0 282.625 0C288.75 0 294.792 1.5 300.75 4.5C302.5 5.41667 303.75 5.875 304.5 5.875C305.625 5.875 306.604 5.47917 307.438 4.6875C308.521 3.5625 309.292 2 309.75 0H311.938ZM347 6.5625V40.0625H365.625C370.458 40.0625 373.688 39.3333 375.312 37.875C377.479 35.9583 378.688 32.5833 378.938 27.75H381.25V57.25H378.938C378.354 53.125 377.771 50.4792 377.188 49.3125C376.438 47.8542 375.208 46.7083 373.5 45.875C371.792 45.0417 369.167 44.625 365.625 44.625H347V72.5625C347 76.3125 347.167 78.6042 347.5 79.4375C347.833 80.2292 348.417 80.875 349.25 81.375C350.083 81.8333 351.667 82.0625 354 82.0625H368.375C373.167 82.0625 376.646 81.7292 378.812 81.0625C380.979 80.3958 383.062 79.0833 385.062 77.125C387.646 74.5417 390.292 70.6458 393 65.4375H395.5L388.188 86.6875H322.875V84.375H325.875C327.875 84.375 329.771 83.8958 331.562 82.9375C332.896 82.2708 333.792 81.2708 334.25 79.9375C334.75 78.6042 335 75.875 335 71.75V16.6875C335 11.3125 334.458 8 333.375 6.75C331.875 5.08333 329.375 4.25 325.875 4.25H322.875V1.9375H388.188L389.125 20.5H386.688C385.812 16.0417 384.833 12.9792 383.75 11.3125C382.708 9.64583 381.146 8.375 379.062 7.5C377.396 6.875 374.458 6.5625 370.25 6.5625H347ZM424.75 47V71.6875C424.75 77.0208 425.333 80.3333 426.5 81.625C428.083 83.4583 430.479 84.375 433.688 84.375H436.938V86.6875H400.625V84.375H403.812C407.396 84.375 409.958 83.2083 411.5 80.875C412.333 79.5833 412.75 76.5208 412.75 71.6875V16.9375C412.75 11.6042 412.188 8.29167 411.062 7C409.438 5.16667 407.021 4.25 403.812 4.25H400.625V1.9375H431.688C439.271 1.9375 445.25 2.72917 449.625 4.3125C454 5.85417 457.688 8.47917 460.688 12.1875C463.688 15.8958 465.188 20.2917 465.188 25.375C465.188 32.2917 462.896 37.9167 458.312 42.25C453.771 46.5833 447.333 48.75 439 48.75C436.958 48.75 434.75 48.6042 432.375 48.3125C430 48.0208 427.458 47.5833 424.75 47ZM424.75 43.4375C426.958 43.8542 428.917 44.1667 430.625 44.375C432.333 44.5833 433.792 44.6875 435 44.6875C439.333 44.6875 443.062 43.0208 446.188 39.6875C449.354 36.3125 450.938 31.9583 450.938 26.625C450.938 22.9583 450.188 19.5625 448.688 16.4375C447.188 13.2708 445.062 10.9167 442.312 9.375C439.562 7.79167 436.438 7 432.938 7C430.812 7 428.083 7.39583 424.75 8.1875V43.4375ZM543.812 1.9375L544.75 21.8125H542.375C541.917 18.3125 541.292 15.8125 540.5 14.3125C539.208 11.8958 537.479 10.125 535.312 9C533.188 7.83333 530.375 7.25 526.875 7.25H514.938V72C514.938 77.2083 515.5 80.4583 516.625 81.75C518.208 83.5 520.646 84.375 523.938 84.375H526.875V86.6875H490.938V84.375H493.938C497.521 84.375 500.062 83.2917 501.562 81.125C502.479 79.7917 502.938 76.75 502.938 72V7.25H492.75C488.792 7.25 485.979 7.54167 484.312 8.125C482.146 8.91667 480.292 10.4375 478.75 12.6875C477.208 14.9375 476.292 17.9792 476 21.8125H473.625L474.625 1.9375H543.812Z" fill="black"/>
<path d="M0 103.75H547.938V110H0V103.75Z" fill="black"/>
</svg>
